<svg width="44" height="44" viewBox="0 0 44 44" fill="none" xmlns="http://www.w3.org/2000/svg">
<path d="M9.77703 8.92871C8.73266 8.92871 7.86877 9.79217 7.86877 10.8366V21.6537C7.86877 22.698 8.73235 23.5617 9.77703 23.5617H11.6316V27.5322C11.6318 28.2214 12.4973 28.5287 12.9321 27.994L15.8651 24.3852V27.5322C15.8651 28.5769 16.7295 29.4402 17.7738 29.4402H26.5389L30.1412 33.8729C30.576 34.4077 31.4415 34.1003 31.4417 33.4112V29.4402H33.2967C34.3407 29.4402 35.2047 28.5769 35.2047 27.5321V16.7156C35.2047 15.6709 34.3407 14.8076 33.2967 14.8076H27.2083V10.8366C27.2083 9.79198 26.3442 8.92871 25.2997 8.92871H9.77703ZM9.77703 10.393H25.2998C25.5587 10.393 25.744 10.5784 25.744 10.8366V21.6537C25.744 21.9114 25.5584 22.0973 25.2998 22.0973H16.1863C16.0774 22.0973 15.9699 22.1216 15.8716 22.1684C15.7733 22.2151 15.6867 22.2832 15.618 22.3677L13.0962 25.4703V22.8295C13.0962 22.4251 12.7684 22.0973 12.364 22.0973H9.77721C9.51893 22.0973 9.33355 21.9115 9.33355 21.6537V10.8365C9.33355 10.5782 9.51868 10.3929 9.77721 10.3929L9.77703 10.393Z" fill="black"/>
<path d="M14.0893 12.603C13.8951 12.603 13.7089 12.6802 13.5716 12.8175C13.4343 12.9548 13.3571 13.141 13.3571 13.3352V19.2272C13.3571 19.4214 13.4343 19.6076 13.5716 19.7449C13.7089 19.8821 13.8952 19.9593 14.0893 19.9593C14.2835 19.9593 14.4697 19.8821 14.607 19.7449C14.7443 19.6076 14.8215 19.4214 14.8215 19.2272V17.673H17.3105V19.2399C17.3106 19.4341 17.3877 19.6203 17.525 19.7576C17.6624 19.8949 17.8486 19.972 18.0428 19.972C18.2369 19.972 18.4231 19.8949 18.5605 19.7576C18.6978 19.6203 18.7749 19.4341 18.775 19.2399V13.3352C18.7749 13.141 18.6978 12.9548 18.5605 12.8175C18.4232 12.6802 18.2369 12.603 18.0428 12.603H14.0893ZM14.8215 14.0674H17.3105V16.2085H14.8215V14.0674ZM21.5243 12.603C21.3301 12.603 21.1438 12.6802 21.0065 12.8175C20.8692 12.9548 20.7921 13.141 20.7921 13.3352V19.2271C20.7921 19.4213 20.8692 19.6076 21.0065 19.7449C21.1438 19.8822 21.3301 19.9593 21.5243 19.9593C21.7185 19.9593 21.9047 19.8822 22.042 19.7449C22.1793 19.6076 22.2565 19.4213 22.2565 19.2271V13.3352C22.2565 13.141 22.1793 12.9548 22.042 12.8175C21.9047 12.6802 21.7185 12.603 21.5243 12.603Z" fill="black"/>
</svg>
