<svg width="44" height="44" viewBox="0 0 44 44" fill="none" xmlns="http://www.w3.org/2000/svg">
<path d="M10.5558 8.92871C9.5114 8.92871 8.64752 9.79217 8.64752 10.8366V21.6537C8.64752 22.698 9.5111 23.5617 10.5558 23.5617H12.4104V27.5322C12.4106 28.2214 13.276 28.5287 13.7109 27.994L16.6439 24.3852V27.5322C16.6439 28.5769 17.5082 29.4402 18.5525 29.4402H27.3176L30.92 33.8729C31.3548 34.4077 32.2203 34.1003 32.2204 33.4112V29.4402H34.0754C35.1194 29.4402 35.9834 28.5769 35.9834 27.5321V16.7156C35.9834 15.6709 35.1194 14.8076 34.0754 14.8076H27.9871V10.8366C27.9871 9.79198 27.1229 8.92871 26.0784 8.92871H10.5558ZM10.5558 10.393H26.0786C26.3374 10.393 26.5228 10.5784 26.5228 10.8366V21.6537C26.5228 21.9114 26.3372 22.0973 26.0786 22.0973H16.965C16.8562 22.0973 16.7487 22.1216 16.6504 22.1684C16.5521 22.2151 16.4654 22.2832 16.3968 22.3677L13.875 25.4703V22.8295C13.875 22.4251 13.5471 22.0973 13.1428 22.0973H10.556C10.2977 22.0973 10.1123 21.9115 10.1123 21.6537V10.8365C10.1123 10.5782 10.2974 10.3929 10.556 10.3929L10.5558 10.393Z" fill="white"/>
<path d="M14.8681 12.603C14.6739 12.603 14.4877 12.6802 14.3503 12.8175C14.213 12.9548 14.1359 13.141 14.1359 13.3352V19.2272C14.1359 19.4214 14.2131 19.6076 14.3504 19.7449C14.4877 19.8821 14.6739 19.9593 14.8681 19.9593C15.0622 19.9593 15.2485 19.8821 15.3858 19.7449C15.5231 19.6076 15.6002 19.4214 15.6003 19.2272V17.673H18.0893V19.2399C18.0893 19.4341 18.1665 19.6203 18.3038 19.7576C18.4411 19.8949 18.6273 19.972 18.8215 19.972C19.0157 19.972 19.2019 19.8949 19.3392 19.7576C19.4765 19.6203 19.5537 19.4341 19.5537 19.2399V13.3352C19.5537 13.141 19.4765 12.9548 19.3392 12.8175C19.2019 12.6802 19.0157 12.603 18.8215 12.603H14.8681ZM15.6003 14.0674H18.0893V16.2085H15.6003V14.0674ZM22.303 12.603C22.1088 12.603 21.9226 12.6802 21.7853 12.8175C21.648 12.9548 21.5708 13.141 21.5708 13.3352V19.2271C21.5708 19.4213 21.648 19.6076 21.7853 19.7449C21.9226 19.8822 22.1088 19.9593 22.303 19.9593C22.4972 19.9593 22.6835 19.8822 22.8208 19.7449C22.9581 19.6076 23.0352 19.4213 23.0352 19.2271V13.3352C23.0352 13.141 22.9581 12.9548 22.8208 12.8175C22.6835 12.6802 22.4972 12.603 22.303 12.603Z" fill="white"/>
</svg>
